HIERARCHY
ROOT Pelvis
{
	OFFSET 0.000000 0.941512 0.000000
	CHANNELS 6 Xposition Yposition Zposition Zrotation Yrotation Xrotation 
	JOINT Pelvis_L_Hip
	{
		OFFSET 0.000000 0.000000 0.000000
		CHANNELS 3 Zrotation Yrotation Xrotation
		JOINT L_Hip
		{
			OFFSET 0.062321 -0.080322 -0.016990
			CHANNELS 3 Zrotation Yrotation Xrotation
			JOINT L_Knee
			{
				OFFSET 0.093051 -0.381305 -0.029784
				CHANNELS 3 Zrotation Yrotation Xrotation
				JOINT L_Ankle
				{
					OFFSET -0.010371 -0.431000 -0.033614
					CHANNELS 3 Zrotation Yrotation Xrotation
					End Site #name: L_Foot
					{
						OFFSET 0.069299 -0.038670 0.119418
					}
				}
			}
		}
	}
	JOINT Pelvis_R_Hip
	{
		OFFSET 0.000000 0.000000 0.000000
		CHANNELS 3 Zrotation Yrotation Xrotation
		JOINT R_Hip
		{
			OFFSET -0.055334 -0.094904 -0.002373
			CHANNELS 3 Zrotation Yrotation Xrotation
			JOINT R_Knee
			{
				OFFSET -0.064207 -0.384370 -0.019592
				CHANNELS 3 Zrotation Yrotation Xrotation
				JOINT R_Ankle
				{
					OFFSET 0.025418 -0.419734 -0.065953
					CHANNELS 3 Zrotation Yrotation Xrotation
					End Site #name: R_Foot
					{
						OFFSET -0.057233 -0.039888 0.132134
					}
				}
			}
		}
	}
	JOINT Pelvis_Spine1
	{
		OFFSET 0.000000 0.000000 0.000000
		CHANNELS 3 Zrotation Yrotation Xrotation
		JOINT Spine1
		{
			OFFSET -0.005562 0.124093 -0.043360
			CHANNELS 3 Zrotation Yrotation Xrotation
			JOINT Spine2
			{
				OFFSET 0.012244 0.139499 0.029894
				CHANNELS 3 Zrotation Yrotation Xrotation
				JOINT Spine3
				{
					OFFSET -0.002556 0.056561 0.009225
					CHANNELS 3 Zrotation Yrotation Xrotation
					JOINT Spine3_Neck
					{
						OFFSET 0.000000 0.000000 0.000000
						CHANNELS 3 Zrotation Yrotation Xrotation
						JOINT Neck
						{
							OFFSET -0.005205 0.217920 -0.024551
							CHANNELS 3 Zrotation Yrotation Xrotation
							End Site #name: Head
							{
								OFFSET 0.002365 0.091850 0.046637
							}
						}
					}
					JOINT Spine3_L_Collar
					{
						OFFSET 0.000000 0.000000 0.000000
						CHANNELS 3 Zrotation Yrotation Xrotation
						JOINT L_Collar
						{
							OFFSET 0.072225 0.116603 -0.009480
							CHANNELS 3 Zrotation Yrotation Xrotation
							JOINT L_Shoulder
							{
								OFFSET 0.115937 -0.058643 -0.021018
								CHANNELS 3 Zrotation Yrotation Xrotation
								JOINT L_Elbow
								{
									OFFSET 0.021994 -0.254722 -0.024492
									CHANNELS 3 Zrotation Yrotation Xrotation
									End Site #name: L_Wrist
									{
										OFFSET 0.048810 -0.240214 0.103329
									}
								}
							}
						}
					}
					JOINT Spine3_R_Collar
					{
						OFFSET 0.000000 0.000000 0.000000
						CHANNELS 3 Zrotation Yrotation Xrotation
						JOINT R_Collar
						{
							OFFSET -0.073372 0.120704 -0.024611
							CHANNELS 3 Zrotation Yrotation Xrotation
							JOINT R_Shoulder
							{
								OFFSET -0.108089 -0.054969 -0.020504
								CHANNELS 3 Zrotation Yrotation Xrotation
								JOINT R_Elbow
								{
									OFFSET -0.033684 -0.260739 0.009889
									CHANNELS 3 Zrotation Yrotation Xrotation
									End Site #name: R_Wrist
									{
										OFFSET -0.067980 -0.232763 0.118463
									}
								}
							}
						}
					}
				}
			}
		}
	}
}
MOTION
Frames: 13
Frame Time: 0.041667
0.000000 0.959459 0.000000 -2.372462 -2.332555 -0.774203 0.000000 0.000000 0.000000 -8.347192 1.143980 1.519370 10.073958 -0.946553 1.317637 -3.424184 -9.038065 1.001608 0.000000 0.000000 0.000000 5.853999 0.044168 -1.570961 -8.845448 1.859614 3.269756 3.381242 12.817812 -0.612324 0.000000 0.000000 0.000000 5.085535 0.020654 -8.427993 -5.598363 6.460325 47.203238 -0.674855 0.146086 -42.394506 0.000000 0.000000 0.000000 0.295651 -0.907168 23.499313 0.000000 0.000000 0.000000 14.241214 -2.912477 0.471559 -6.060913 0.837785 4.068093 -6.293317 -3.720838 -3.327386 0.000000 0.000000 0.000000 -11.985053 -4.548478 5.176674 11.786963 -0.916692 8.472874 3.380899 2.492119 -2.179084 
-0.001498 0.959400 0.000697 -2.384619 -2.243915 -0.947203 0.000000 0.000000 0.000000 -8.201026 1.177094 1.672732 10.047369 -0.956989 1.431657 -3.432272 -9.147548 0.960819 0.000000 0.000000 0.000000 5.912900 -0.040008 -1.187402 -8.772094 1.811100 3.027185 3.374738 12.800148 -0.615248 0.000000 0.000000 0.000000 5.223547 -0.024678 -8.215244 -5.740068 6.471209 46.791583 -0.631882 0.143455 -42.154318 0.000000 0.000000 0.000000 0.260540 -0.882799 23.483457 0.000000 0.000000 0.000000 14.254185 -3.107548 0.342187 -5.950557 0.861137 4.274883 -6.541188 -3.826714 -3.280861 0.000000 0.000000 0.000000 -12.009651 -4.444417 5.115303 11.739834 -0.996802 8.788453 3.700238 2.895930 -2.817575 
-0.003471 0.959316 0.001714 -2.390874 -2.113143 -1.041526 0.000000 0.000000 0.000000 -8.055296 1.187139 1.751590 10.065966 -0.971485 1.551245 -3.466645 -9.268199 0.955023 0.000000 0.000000 0.000000 5.997560 -0.151234 -0.691840 -8.706912 1.717564 2.454590 3.409706 12.775716 -0.537703 0.000000 0.000000 0.000000 5.272387 -0.023445 -8.261498 -5.780074 6.467515 46.759210 -0.564986 0.168535 -42.189493 0.000000 0.000000 0.000000 0.254672 -0.886578 23.526016 0.000000 0.000000 0.000000 14.156102 -3.082273 0.347223 -6.007106 0.889564 4.444713 -6.125298 -3.676772 -3.453063 0.000000 0.000000 0.000000 -11.993316 -4.497352 5.141311 11.690880 -1.013731 8.853994 3.888015 3.132445 -3.180719 
-0.005173 0.959190 0.002681 -2.428052 -1.971523 -1.024860 0.000000 0.000000 0.000000 -7.883907 1.162321 1.724586 10.050772 -0.980010 1.646863 -3.467937 -9.360713 0.910275 0.000000 0.000000 0.000000 6.093258 -0.239561 -0.311885 -8.625142 1.619785 1.866351 3.434455 12.709752 -0.457561 0.000000 0.000000 0.000000 5.310060 -0.006364 -8.424530 -5.852060 6.481501 46.727250 -0.475018 0.268122 -42.237295 0.000000 0.000000 0.000000 0.294745 -0.927991 23.540353 0.000000 0.000000 0.000000 13.938871 -2.752754 0.545065 -6.255942 0.899122 4.380058 -4.831286 -3.062245 -3.489416 0.000000 0.000000 0.000000 -11.849630 -4.527182 5.113930 11.664891 -0.990988 8.752147 3.723626 2.907853 -2.814574 
-0.006395 0.959086 0.003605 -2.443913 -1.851831 -0.963708 0.000000 0.000000 0.000000 -7.770876 1.132622 1.662092 10.031817 -0.985100 1.708727 -3.467736 -9.427465 0.877411 0.000000 0.000000 0.000000 6.138776 -0.287164 -0.109246 -8.535339 1.554544 1.510874 3.431260 12.648559 -0.431919 0.000000 0.000000 0.000000 5.385282 0.004133 -8.574793 -6.014715 6.555731 46.647500 -0.395445 0.409471 -42.272146 0.000000 0.000000 0.000000 0.288803 -0.940578 23.521983 0.000000 0.000000 0.000000 13.752160 -2.442118 0.737371 -6.365107 0.871424 4.138591 -3.712829 -2.424997 -3.111753 0.000000 0.000000 0.000000 -11.781088 -4.448130 5.032185 11.754025 -0.981149 8.714912 3.436557 2.505327 -2.131142 
-0.007072 0.959029 0.004649 -2.399690 -1.731802 -0.951040 0.000000 0.000000 0.000000 -7.774502 1.134884 1.667233 10.054421 -0.992251 1.755510 -3.491600 -9.536939 0.861467 0.000000 0.000000 0.000000 6.114951 -0.331252 0.095456 -8.497873 1.513775 1.261513 3.412938 12.589668 -0.435331 0.000000 0.000000 0.000000 5.455942 0.005344 -8.653156 -6.198714 6.645316 46.606671 -0.338151 0.537024 -42.322036 0.000000 0.000000 0.000000 0.186192 -0.882102 23.469135 0.000000 0.000000 0.000000 13.723267 -2.390998 0.778148 -6.193029 0.833022 3.970053 -3.469802 -2.177316 -2.608041 0.000000 0.000000 0.000000 -11.824155 -4.290342 4.929240 11.842145 -0.995434 8.781747 3.254188 2.178373 -1.482274 
-0.007361 0.958960 0.005792 -2.342378 -1.551850 -0.934590 0.000000 0.000000 0.000000 -7.822088 1.138164 1.661863 10.099112 -1.000554 1.795570 -3.533095 -9.698404 0.848047 0.000000 0.000000 0.000000 6.094922 -0.376934 0.307110 -8.532896 1.486873 1.022859 3.370012 12.468135 -0.453147 0.000000 0.000000 0.000000 5.480528 0.017661 -8.762688 -6.277838 6.676461 46.686914 -0.296144 0.610096 -42.398324 0.000000 0.000000 0.000000 0.070824 -0.813306 23.398235 0.000000 0.000000 0.000000 13.796304 -2.511943 0.718315 -5.879385 0.809641 3.976257 -3.910976 -2.303123 -2.307101 0.000000 0.000000 0.000000 -11.853546 -4.172843 4.849675 11.789942 -1.020624 8.883425 3.149643 1.971376 -1.047340 
-0.007476 0.958876 0.006914 -2.318899 -1.351371 -0.870402 0.000000 0.000000 0.000000 -7.839340 1.135652 1.644616 10.146212 -0.999252 1.760290 -3.585431 -9.874944 0.842814 0.000000 0.000000 0.000000 6.120747 -0.408041 0.439321 -8.584756 1.470377 0.837261 3.311084 12.299345 -0.476130 0.000000 0.000000 0.000000 5.450719 0.042020 -8.910069 -6.246998 6.639454 46.814968 -0.241095 0.651221 -42.473828 0.000000 0.000000 0.000000 0.012498 -0.782196 23.344051 0.000000 0.000000 0.000000 13.820625 -2.630481 0.649070 -5.590268 0.808183 4.123764 -4.444641 -2.529270 -2.224555 0.000000 0.000000 0.000000 -11.838322 -4.122155 4.804450 11.557619 -1.079184 9.110963 3.164562 1.980096 -1.049492 
-0.007379 0.958752 0.008182 -2.284176 -1.225294 -0.832377 0.000000 0.000000 0.000000 -7.895202 1.176411 1.752540 10.205642 -0.982670 1.567360 -3.647648 -10.012905 0.874381 0.000000 0.000000 0.000000 6.127617 -0.424630 0.511527 -8.656210 1.480346 0.820825 3.229582 12.168524 -0.562025 0.000000 0.000000 0.000000 5.401041 0.061271 -8.998359 -6.220603 6.614826 46.902293 -0.187101 0.683614 -42.523066 0.000000 0.000000 0.000000 0.039226 -0.807873 23.322233 0.000000 0.000000 0.000000 13.805628 -2.663123 0.628965 -5.478810 0.820774 4.278199 -4.666529 -2.627502 -2.205635 0.000000 0.000000 0.000000 -11.817738 -4.124795 4.795639 11.370172 -1.123399 9.284135 3.176656 2.021817 -1.150999 
-0.007094 0.958517 0.009809 -2.203559 -1.188160 -0.854468 0.000000 0.000000 0.000000 -8.031330 1.248442 1.936993 10.289186 -0.974646 1.430363 -3.677185 -10.096545 0.880405 0.000000 0.000000 0.000000 6.076601 -0.424004 0.523190 -8.735233 1.527312 1.060328 3.138328 12.087609 -0.692943 0.000000 0.000000 0.000000 5.312023 0.079932 -9.047363 -6.236169 6.626758 46.954137 -0.145784 0.724298 -42.508751 0.000000 0.000000 0.000000 0.103132 -0.856186 23.319401 0.000000 0.000000 0.000000 13.884505 -2.625309 0.671559 -5.618343 0.834271 4.299646 -4.585674 -2.572046 -2.141523 0.000000 0.000000 0.000000 -11.817862 -4.139493 4.802962 11.509378 -1.079465 9.105488 2.931738 1.762858 -0.776127 
-0.006934 0.958313 0.011470 -2.135779 -1.176708 -0.935776 0.000000 0.000000 0.000000 -8.124810 1.302793 2.080402 10.321806 -0.986667 1.511104 -3.637905 -10.132507 0.802396 0.000000 0.000000 0.000000 6.042350 -0.412859 0.486528 -8.791984 1.600674 1.511317 3.016051 12.001074 -0.880151 0.000000 0.000000 0.000000 5.217585 0.091304 -9.034924 -6.249266 6.636624 46.978175 -0.122775 0.744628 -42.471719 0.000000 0.000000 0.000000 0.148406 -0.890060 23.344491 0.000000 0.000000 0.000000 13.951819 -2.605513 0.698339 -5.742427 0.844068 4.301121 -4.524523 -2.533324 -2.104615 0.000000 0.000000 0.000000 -11.812327 -4.113331 4.783846 11.701997 -1.044113 8.969622 2.812897 1.615151 -0.526044 
-0.006949 0.958190 0.012937 -2.114184 -1.165583 -1.034084 0.000000 0.000000 0.000000 -8.145040 1.341302 2.198465 10.316947 -1.004438 1.671084 -3.561748 -10.142041 0.678515 0.000000 0.000000 0.000000 6.060763 -0.406410 0.459049 -8.833454 1.670998 1.956416 2.887185 11.900901 -1.073751 0.000000 0.000000 0.000000 5.164594 0.096133 -9.012381 -6.234620 6.629096 47.018231 -0.130204 0.730403 -42.427380 0.000000 0.000000 0.000000 0.152606 -0.895007 23.414306 0.000000 0.000000 0.000000 14.003775 -2.613195 0.702172 -5.800447 0.848352 4.298115 -4.638385 -2.599150 -2.152014 0.000000 0.000000 0.000000 -11.798264 -4.087491 4.763995 11.849676 -1.032570 8.931510 2.914465 1.692478 -0.596952 
-0.006983 0.958094 0.014311 -2.120448 -1.161823 -1.122344 0.000000 0.000000 0.000000 -8.126447 1.383531 2.339423 10.299896 -1.012402 1.753513 -3.505010 -10.149848 0.586427 0.000000 0.000000 0.000000 6.103728 -0.427831 0.548310 -8.870863 1.703362 2.138286 2.818721 11.853252 -1.179852 0.000000 0.000000 0.000000 5.151101 0.098977 -9.014613 -6.226427 6.629507 47.068853 -0.138523 0.715795 -42.397627 0.000000 0.000000 0.000000 0.114524 -0.872214 23.536820 0.000000 0.000000 0.000000 14.020099 -2.640766 0.686058 -5.823957 0.851299 4.305521 -4.806602 -2.707515 -2.260388 0.000000 0.000000 0.000000 -11.783505 -4.077224 4.753978 11.988553 -1.027485 8.920625 3.060608 1.834106 -0.786156 
